# xmcd CD database file
#
# Track frame offsets:
#	150
#	24981
#	46020
#	73397
#	88566
#	118375
#	138967
#	179359
#	202823
#	237703
#	278598
#
# Disc length: 4086 seconds
#
# Revision: 2
# Processed by: cddbd v1.5.2PL0 Copyright (c) Steve Scherf et al.
# Submitted via: CDex 1.51
#
DISCID=9a0ff40b
DTITLE=Johannes Faber Quartet - I Gotta Right To Sing The Blues
DYEAR=2010
DGENRE=Jazz
TTITLE0=Westend Blues
TTITLE1=Istanblues
TTITLE2=Sometimes I Feel ike A Motherless Child
TTITLE3=Venerdi´s Blues
TTITLE4=Die Biberratte
TTITLE5=Die Biberratte
TTITLE6=Heart Of Stone Blues
TTITLE7=Tuesday Bluesday
TTITLE8=Bangalore
TTITLE9=I Gotta Right To Sing The Blues
TTITLE10=Two Blues Or Not Two Blues
EXTD=YEAR: 2010
EXTT0=
EXTT1=
EXTT2=
EXTT3=
EXTT4=
EXTT5=
EXTT6=
EXTT7=
EXTT8=
EXTT9=
EXTT10=
PLAYORDER=
